<svg xmlns="http://www.w3.org/2000/svg" width="224" height="224" version="1.1"><g><path fill="none" stroke="#070935" stroke-linecap="round" stroke-linejoin="round" stroke-opacity=".955" stroke-width="1.98" d="M 145.67820739746094 119.41971588134766 C 138.50164794921875 77.37046813964844 125.63067626953125 71.85445404052734 124.93275451660156 54.76020812988281"/><path fill="none" stroke="#A6B340" stroke-linecap="round" stroke-linejoin="round" stroke-opacity=".043" stroke-width="2.256" d="M 114.47239685058594 105.63030242919922 C 123.93647766113281 144.87127685546875 119.72891235351562 136.63412475585938 105.56591796875 78.3676986694336"/><path fill="none" stroke="#2D64AA" stroke-linecap="round" stroke-linejoin="round" stroke-opacity=".689" stroke-width="27.087" d="M 73.98648834228516 169.77809143066406 C -28.58053207397461 195.89767456054688 -23.57124137878418 181.3546142578125 -16.800912857055664 199.0988006591797"/><path fill="none" stroke="#05120B" stroke-linecap="round" stroke-linejoin="round" stroke-opacity=".95" stroke-width="6.734" d="M 118.28734588623047 109.33824920654297 C 107.32853698730469 101.72013854980469 111.324951171875 72.45792388916016 117.51249694824219 107.98445129394531"/><path fill="none" stroke="#0224B1" stroke-linecap="round" stroke-linejoin="round" stroke-opacity=".942" stroke-width="10.721" d="M 91.39109802246094 150.86915588378906 C 71.54037475585938 101.05670166015625 66.38807678222656 141.38375854492188 73.45343780517578 121.44593811035156"/><path fill="none" stroke="#F9E5C7" stroke-linecap="round" stroke-linejoin="round" stroke-opacity=".425" stroke-width="8.003" d="M 119.17562866210938 53.09011459350586 C 155.67295837402344 69.17274475097656 145.3423614501953 62.67974090576172 143.51162719726562 144.81761169433594"/><path fill="none" stroke="#B3571A" stroke-linecap="round" stroke-linejoin="round" stroke-opacity=".864" stroke-width="28.834" d="M 43.67094421386719 164.0130157470703 C 65.39713287353516 137.11245727539062 127.60202026367188 162.43218994140625 89.85110473632812 181.38157653808594"/><path fill="none" stroke="#3B0310" stroke-linecap="round" stroke-linejoin="round" stroke-opacity=".893" stroke-width="8.797" d="M 113.00965118408203 150.29507446289062 C 36.082210540771484 130.1785888671875 89.86532592773438 121.20132446289062 61.686336517333984 117.21343994140625"/><path fill="none" stroke="#010000" stroke-linecap="round" stroke-linejoin="round" stroke-opacity="1.002" stroke-width="18.969" d="M 110.33132934570312 152.11264038085938 C 119.03324890136719 123.33319091796875 148.9398956298828 206.1320343017578 94.0373306274414 203.08042907714844"/><path fill="none" stroke="#171E23" stroke-linecap="round" stroke-linejoin="round" stroke-opacity=".907" stroke-width="6.351" d="M 257.46246337890625 172.13912963867188 C 154.2978515625 168.1591033935547 112.01956939697266 182.1595001220703 151.79722595214844 148.70082092285156"/><path fill="none" stroke="#FFA613" stroke-linecap="round" stroke-linejoin="round" stroke-opacity=".726" stroke-width="10.009" d="M 143.6804962158203 170.38539123535156 C 101.96196746826172 153.78627014160156 115.39817810058594 160.8365020751953 99.09368133544922 165.06082153320312"/><path fill="none" stroke="#E0C5AB" stroke-linecap="round" stroke-linejoin="round" stroke-opacity="1.003" stroke-width="5.675" d="M 112.73714447021484 158.88441467285156 C 114.4843978881836 217.76316833496094 134.36256408691406 265.1699523925781 121.43197631835938 164.7327423095703"/><path fill="none" stroke="#630002" stroke-linecap="round" stroke-linejoin="round" stroke-opacity=".74" stroke-width="3.907" d="M 233.7226104736328 157.262939453125 C 214.37496948242188 155.0208282470703 231.79917907714844 156.95469665527344 233.11790466308594 156.90713500976562"/><path fill="none" stroke="#52481D" stroke-linecap="round" stroke-linejoin="round" stroke-opacity=".666" stroke-width="15.989" d="M 46.2060661315918 186.3841094970703 C 202.0506591796875 196.2042999267578 143.5009765625 189.95941162109375 57.93147277832031 182.1004638671875"/><path fill="none" stroke="#2F1405" stroke-linecap="round" stroke-linejoin="round" stroke-opacity=".853" stroke-width="4.904" d="M 134.51263427734375 159.83355712890625 C 137.60366821289062 155.41065979003906 133.98171997070312 116.15589141845703 101.22332000732422 71.79669952392578"/><path fill="none" stroke="#153347" stroke-linecap="round" stroke-linejoin="round" stroke-opacity=".067" stroke-width="3.614" d="M 115.31551361083984 116.66252899169922 C 110.93333435058594 101.90122985839844 128.20932006835938 136.12185668945312 106.30657196044922 86.14302062988281"/><path fill="none" stroke="#382815" stroke-linecap="round" stroke-linejoin="round" stroke-opacity=".364" stroke-width="5.142" d="M 124.6289291381836 113.89118194580078 C 107.66453552246094 113.13371276855469 91.25755310058594 84.03514099121094 115.81111907958984 112.38233184814453"/><path fill="none" stroke="#091644" stroke-linecap="round" stroke-linejoin="round" stroke-opacity=".936" stroke-width="14.143" d="M 82.18978881835938 130.70742797851562 C 64.4693374633789 113.39634704589844 75.75141143798828 117.25228881835938 95.29776763916016 149.65335083007812"/><path fill="none" stroke="#974C01" stroke-linecap="round" stroke-linejoin="round" stroke-opacity=".969" stroke-width="2.235" d="M 45.912593841552734 219.8758544921875 C 122.37523651123047 223.0293731689453 89.65074157714844 226.83547973632812 2.361466407775879 217.1092529296875"/><path fill="none" stroke="#65626C" stroke-linecap="round" stroke-linejoin="round" stroke-opacity=".154" stroke-width="1.977" d="M 207.29254150390625 172.78314208984375 C 205.04847717285156 121.29434204101562 236.4285125732422 136.99790954589844 169.29205322265625 171.39097595214844"/><path fill="none" stroke="#024052" stroke-linecap="round" stroke-linejoin="round" stroke-opacity=".088" stroke-width="8.52" d="M 110.04003143310547 74.01533508300781 C 133.7876739501953 106.43107604980469 99.00117492675781 185.48927307128906 122.68679809570312 136.34698486328125"/><path fill="none" stroke="#010015" stroke-linecap="round" stroke-linejoin="round" stroke-opacity=".494" stroke-width="18.562" d="M 16.696130752563477 154.34495544433594 C -53.74729537963867 160.2233123779297 -128.16656494140625 179.5139617919922 68.49323272705078 173.6867218017578"/><path fill="none" stroke="#333F54" stroke-linecap="round" stroke-linejoin="round" stroke-opacity=".657" stroke-width="2" d="M 234.5379180908203 117.6956787109375 C 247.37644958496094 107.44273376464844 256.51605224609375 110.36306762695312 243.63461303710938 97.58894348144531"/><path fill="none" stroke="#1C51B6" stroke-linecap="round" stroke-linejoin="round" stroke-opacity=".347" stroke-width="7.765" d="M 13.610352516174316 164.70443725585938 C 24.111370086669922 204.49916076660156 -0.2207946926355362 160.69883728027344 65.18902587890625 129.81661987304688"/><path fill="none" stroke="#0C0311" stroke-linecap="round" stroke-linejoin="round" stroke-opacity=".621" stroke-width="5.488" d="M -2.6867637634277344 180.45095825195312 C 53.558021545410156 167.3417205810547 75.23238372802734 158.2875213623047 35.40970993041992 178.11257934570312"/><path fill="none" stroke="#482009" stroke-linecap="round" stroke-linejoin="round" stroke-opacity=".522" stroke-width="2.938" d="M 63.18321228027344 201.99932861328125 C -15.883517265319824 196.27825927734375 13.062846183776855 209.92807006835938 -4.309609413146973 157.95684814453125"/><path fill="none" stroke="#604D61" stroke-linecap="round" stroke-linejoin="round" stroke-opacity=".5" stroke-width="3.662" d="M 67.49061584472656 86.02665710449219 C 131.98635864257812 101.33271789550781 131.51849365234375 145.93954467773438 106.36604309082031 97.6841049194336"/><path fill="none" stroke="#D8BC39" stroke-linecap="round" stroke-linejoin="round" stroke-opacity=".083" stroke-width="15.764" d="M 71.65860748291016 134.00599670410156 C 21.932470321655273 90.86803436279297 109.97782135009766 115.90386199951172 86.4246826171875 139.04400634765625"/><path fill="none" stroke="#FFEE93" stroke-linecap="round" stroke-linejoin="round" stroke-opacity=".224" stroke-width="13.291" d="M 79.27157592773438 182.3549041748047 C 82.31208801269531 148.27125549316406 106.84757995605469 102.33078002929688 141.93667602539062 152.54690551757812"/><path fill="none" stroke="#7D6541" stroke-linecap="round" stroke-linejoin="round" stroke-opacity=".019" stroke-width="1.997" d="M 226.58859252929688 121.72638702392578 C 196.53465270996094 99.61328125 212.8298797607422 117.57776641845703 208.49212646484375 149.84471130371094"/><path fill="none" stroke="#BDD7C7" stroke-linecap="round" stroke-linejoin="round" stroke-opacity=".061" stroke-width="5.967" d="M 126.8104019165039 126.83039855957031 C 103.04164123535156 120.90702056884766 75.60602569580078 119.687744140625 107.94174194335938 164.07012939453125"/><path fill="none" stroke="#797D80" stroke-linecap="round" stroke-linejoin="round" stroke-opacity=".077" stroke-width="11.466" d="M 132.17799377441406 64.03260803222656 C 137.42686462402344 77.41397857666016 157.322509765625 114.79495239257812 126.50091552734375 76.00630187988281"/><path fill="none" stroke="#78436B" stroke-linecap="round" stroke-linejoin="round" stroke-opacity=".003" stroke-width="16.855" d="M 237.15704345703125 179.7354736328125 C 285.6968688964844 187.02261352539062 225.22738647460938 187.1819305419922 155.50462341308594 184.2656707763672"/><path fill="none" stroke="#00001C" stroke-linecap="round" stroke-linejoin="round" stroke-opacity=".8" stroke-width="7.175" d="M 56.27255630493164 178.0548553466797 C -33.90047836303711 194.69955444335938 -76.7548828125 145.96218872070312 48.595375061035156 166.9983367919922"/><path fill="none" stroke="#00000B" stroke-linecap="round" stroke-linejoin="round" stroke-opacity="1.005" stroke-width="10.213" d="M 241.11053466796875 162.39341735839844 C 339.77099609375 166.1334686279297 313.76904296875 161.55010986328125 165.91343688964844 154.303466796875"/><path fill="none" stroke="#233460" stroke-linecap="round" stroke-linejoin="round" stroke-opacity=".439" stroke-width="19.023" d="M -12.838286399841309 168.10629272460938 C 56.899200439453125 149.14064025878906 23.098670959472656 162.54959106445312 -29.362945556640625 165.59344482421875"/><path fill="none" stroke="#D3B2CC" stroke-linecap="round" stroke-linejoin="round" stroke-opacity=".851" stroke-width="3.33" d="M 228.3262939453125 197.0145263671875 C 185.88121032714844 258.3278503417969 173.9412384033203 199.8129119873047 162.5262451171875 154.15480041503906"/><path fill="none" stroke="#184096" stroke-linecap="round" stroke-linejoin="round" stroke-opacity=".542" stroke-width="7.555" d="M 120.02230072021484 120.7002944946289 C 81.3917236328125 81.85553741455078 104.80838775634766 91.60456848144531 119.7189712524414 116.01504516601562"/><path fill="none" stroke="#775D13" stroke-linecap="round" stroke-linejoin="round" stroke-opacity=".919" stroke-width="5.148" d="M 62.284576416015625 233.01846313476562 C 80.52472686767578 239.2883758544922 230.46408081054688 224.73934936523438 91.06446075439453 192.776123046875"/><path fill="none" stroke="#AB9E8B" stroke-linecap="round" stroke-linejoin="round" stroke-opacity=".086" stroke-width="13.905" d="M 124.36784362792969 57.754150390625 C 180.2904815673828 93.85942840576172 120.31742858886719 35.149208068847656 140.2797088623047 108.1002197265625"/><path fill="none" stroke="#B29A8A" stroke-linecap="round" stroke-linejoin="round" stroke-opacity=".638" stroke-width="1.789" d="M 186.88485717773438 113.18081665039062 C 198.83999633789062 201.6870880126953 188.36903381347656 133.45928955078125 198.26678466796875 193.3721466064453"/><path fill="none" stroke="#0053D1" stroke-linecap="round" stroke-linejoin="round" stroke-opacity=".486" stroke-width="10.485" d="M 130.0360870361328 177.3195343017578 C 156.72274780273438 192.65762329101562 54.7255859375 196.62762451171875 164.3683624267578 211.1736297607422"/><path fill="none" stroke="#145997" stroke-linecap="round" stroke-linejoin="round" stroke-opacity="1.006" stroke-width="1.971" d="M 50.63699722290039 200.86572265625 C 221.84011840820312 177.6243896484375 265.60791015625 188.6534881591797 44.151695251464844 200.62205505371094"/><path fill="none" stroke="#8E5734" stroke-linecap="round" stroke-linejoin="round" stroke-opacity=".484" stroke-width="1.976" d="M 93.57554626464844 151.9553680419922 C 96.8126220703125 179.1139678955078 122.56311798095703 124.14192962646484 83.86175537109375 93.34781646728516"/><path fill="none" stroke="#8C40D4" stroke-linecap="round" stroke-linejoin="round" stroke-opacity=".528" stroke-width="2" d="M 231.22317504882812 110.77407836914062 C 222.04945373535156 124.75495910644531 245.4309844970703 95.3336410522461 226.913818359375 117.27125549316406"/><path fill="none" stroke="#2A0A00" stroke-linecap="round" stroke-linejoin="round" stroke-opacity="1.009" stroke-width="10.101" d="M 58.543949127197266 111.38172149658203 C 63.007240295410156 165.37109375 71.4613037109375 142.27134704589844 87.20844268798828 137.79449462890625"/><path fill="none" stroke="#91845A" stroke-linecap="round" stroke-linejoin="round" stroke-opacity="-.01" stroke-width="4.276" d="M 194.84426879882812 128.023681640625 C 231.85142517089844 104.46887969970703 237.12522888183594 98.67853546142578 242.9901123046875 96.4590835571289"/><path fill="none" stroke="#090024" stroke-linecap="round" stroke-linejoin="round" stroke-opacity=".369" stroke-width="8.457" d="M 51.219913482666016 189.67852783203125 C 47.39973449707031 133.8325653076172 -15.327500343322754 171.03695678710938 16.46748161315918 174.53782653808594"/><path fill="none" stroke="#5E5039" stroke-linecap="round" stroke-linejoin="round" stroke-opacity=".765" stroke-width="2.178" d="M 113.00785827636719 151.3543701171875 C 102.24634552001953 215.74501037597656 111.08793640136719 167.43008422851562 49.11939239501953 145.6260986328125"/><path fill="none" stroke="#0D0001" stroke-linecap="round" stroke-linejoin="round" stroke-opacity="1.003" stroke-width="7.335" d="M 94.97209167480469 165.70660400390625 C 104.51314544677734 115.97554016113281 48.1311149597168 100.8883285522461 74.30879211425781 107.36732482910156"/><path fill="none" stroke="#71705E" stroke-linecap="round" stroke-linejoin="round" stroke-opacity=".662" stroke-width="11.217" d="M 167.35394287109375 177.88865661621094 C 41.34251022338867 185.64952087402344 132.22918701171875 197.34487915039062 105.27433776855469 188.6444091796875"/><path fill="none" stroke="#1E4F9D" stroke-linecap="round" stroke-linejoin="round" stroke-opacity=".906" stroke-width="40.646" d="M -42.46027374267578 201.61476135253906 C 96.60591125488281 179.70579528808594 192.6726531982422 213.5728302001953 -0.13416916131973267 221.3048858642578"/><path fill="none" stroke="#001718" stroke-linecap="round" stroke-linejoin="round" stroke-opacity=".851" stroke-width="3.205" d="M 100.29154205322266 197.8831787109375 C 157.44822692871094 221.0679168701172 22.943410873413086 209.79397583007812 233.51654052734375 227.8675994873047"/><path fill="none" stroke="#341124" stroke-linecap="round" stroke-linejoin="round" stroke-opacity=".505" stroke-width="3.222" d="M 101.06646728515625 157.80270385742188 C 354.0618896484375 145.61407470703125 283.6939392089844 184.5159912109375 100.2020263671875 163.69723510742188"/><path fill="none" stroke="#092F56" stroke-linecap="round" stroke-linejoin="round" stroke-opacity=".428" stroke-width="3.385" d="M 21.203819274902344 189.3430938720703 C 111.53093719482422 194.08084106445312 220.2866668701172 170.01368713378906 130.500732421875 226.0680389404297"/><path fill="none" stroke="#000" stroke-linecap="round" stroke-linejoin="round" stroke-opacity="1.003" stroke-width="10.675" d="M 76.8813247680664 138.7083282470703 C 86.2949447631836 128.72325134277344 63.03996658325195 138.18197631835938 78.45299530029297 131.90013122558594"/><path fill="none" stroke="#6C200A" stroke-linecap="round" stroke-linejoin="round" stroke-opacity=".554" stroke-width="18.08" d="M 82.1942138671875 144.70559692382812 C 102.29253387451172 150.09408569335938 119.89187622070312 199.93003845214844 48.13718032836914 148.75003051757812"/><path fill="none" stroke="#F1F6A3" stroke-linecap="round" stroke-linejoin="round" stroke-opacity=".158" stroke-width="18.383" d="M 213.6385040283203 111.56991577148438 C 149.39950561523438 157.79013061523438 199.72067260742188 67.80177307128906 131.7791290283203 75.77967071533203"/><path fill="none" stroke="#3667A4" stroke-linecap="round" stroke-linejoin="round" stroke-opacity=".775" stroke-width="28.757" d="M 220.69923400878906 216.74188232421875 C 55.465877532958984 226.29498291015625 108.30902862548828 198.37969970703125 239.25851440429688 191.04727172851562"/><path fill="none" stroke="#C24900" stroke-linecap="round" stroke-linejoin="round" stroke-opacity=".306" stroke-width="36.017" d="M 149.68609619140625 169.4759521484375 C 247.75982666015625 170.35162353515625 226.77676391601562 156.4552764892578 234.9535369873047 128.36825561523438"/><path fill="none" stroke="#A3B3BE" stroke-linecap="round" stroke-linejoin="round" stroke-opacity=".2" stroke-width="15.527" d="M 122.33443450927734 81.10118865966797 C 155.84461975097656 73.515869140625 171.17626953125 74.56812286376953 120.67462158203125 58.56060028076172"/><path fill="none" stroke="#88AB79" stroke-linecap="round" stroke-linejoin="round" stroke-opacity=".15" stroke-width="1.975" d="M 80.09638977050781 128.46119689941406 C 130.0209197998047 163.3863983154297 83.25340270996094 107.74150085449219 111.86126708984375 116.2514419555664"/><path fill="none" stroke="#250006" stroke-linecap="round" stroke-linejoin="round" stroke-opacity=".106" stroke-width="10.889" d="M 172.6071319580078 149.50038146972656 C 208.1822509765625 107.74556732177734 226.44961547851562 117.17193603515625 181.323974609375 144.98976135253906"/><path fill="none" stroke="#402D2B" stroke-linecap="round" stroke-linejoin="round" stroke-opacity=".556" stroke-width="4.544" d="M 116.56700134277344 106.63911437988281 C 153.29075622558594 174.15386962890625 138.4986114501953 162.28929138183594 106.03777313232422 155.39259338378906"/><path fill="none" stroke="#E17211" stroke-linecap="round" stroke-linejoin="round" stroke-opacity=".116" stroke-width="20.138" d="M 145.49099731445312 189.36117553710938 C 117.01799011230469 176.74688720703125 59.612274169921875 160.96109008789062 184.27513122558594 164.64356994628906"/><path fill="none" stroke="#DDBA2A" stroke-linecap="round" stroke-linejoin="round" stroke-opacity=".064" stroke-width="14.376" d="M 103.97898864746094 73.83541870117188 C 145.68284606933594 103.41835021972656 172.3315887451172 122.78641510009766 116.76496124267578 90.56907653808594"/><path fill="none" stroke="#582C01" stroke-linecap="round" stroke-linejoin="round" stroke-opacity=".533" stroke-width="1.951" d="M 110.78849792480469 86.31887817382812 C 103.39432525634766 69.69063568115234 100.50592041015625 82.17909240722656 112.91168212890625 96.00674438476562"/><path fill="none" stroke="#AE780A" stroke-linecap="round" stroke-linejoin="round" stroke-opacity=".902" stroke-width="7.858" d="M 71.70471954345703 113.05555725097656 C 63.66665267944336 149.1264190673828 77.07750701904297 119.84146881103516 58.21318435668945 105.82093048095703"/><path fill="none" stroke="#151114" stroke-linecap="round" stroke-linejoin="round" stroke-opacity=".744" stroke-width="3.228" d="M 140.86322021484375 180.7187957763672 C 135.92642211914062 114.01457214355469 105.40145111083984 93.78102111816406 107.83585357666016 79.65713500976562"/><path fill="none" stroke="#26354C" stroke-linecap="round" stroke-linejoin="round" stroke-opacity="-.003" stroke-width="4.701" d="M 113.40243530273438 157.20742797851562 C 131.8538360595703 113.44551849365234 120.45691680908203 69.06731414794922 121.72577667236328 116.74088287353516"/><path fill="none" stroke="#021510" stroke-linecap="round" stroke-linejoin="round" stroke-opacity=".723" stroke-width="6.424" d="M 102.07250213623047 74.8224105834961 C 106.79505157470703 116.48162078857422 122.63105010986328 93.24444580078125 105.8558578491211 89.01172637939453"/><path fill="none" stroke="#000625" stroke-linecap="round" stroke-linejoin="round" stroke-opacity=".583" stroke-width="4.625" d="M 39.57833480834961 150.04879760742188 C 96.37411499023438 197.47227478027344 138.1640625 194.23324584960938 63.9367561340332 90.94111633300781"/><path fill="none" stroke="#FFFF95" stroke-linecap="round" stroke-linejoin="round" stroke-opacity=".062" stroke-width="37.248" d="M 155.57322692871094 89.7189712524414 C 115.34076690673828 131.50645446777344 154.78662109375 84.64242553710938 172.4665069580078 195.4509735107422"/><path fill="none" stroke="#6B5D68" stroke-linecap="round" stroke-linejoin="round" stroke-opacity=".094" stroke-width="28.295" d="M 113.19223022460938 94.49768829345703 C 144.4813690185547 70.54586791992188 172.11279296875 89.2828140258789 135.0637664794922 66.6464614868164"/><path fill="none" stroke="#552100" stroke-linecap="round" stroke-linejoin="round" stroke-opacity=".114" stroke-width="37.776" d="M 79.02851867675781 187.2252960205078 C 239.00445556640625 163.5597686767578 192.01206970214844 124.5531234741211 217.16896057128906 183.401123046875"/><path fill="none" stroke="#FFC70F" stroke-linecap="round" stroke-linejoin="round" stroke-opacity=".431" stroke-width="12.642" d="M 82.43278503417969 95.041015625 C 63.74519348144531 87.31372833251953 84.60505676269531 101.81107330322266 71.72674560546875 120.41571807861328"/><path fill="none" stroke="#5E2006" stroke-linecap="round" stroke-linejoin="round" stroke-opacity=".976" stroke-width="9.072" d="M 106.90775299072266 153.50372314453125 C 93.17039489746094 131.6055145263672 157.71859741210938 173.0520477294922 95.74449920654297 152.09828186035156"/><path fill="none" stroke="#26323B" stroke-linecap="round" stroke-linejoin="round" stroke-opacity="-.003" stroke-width="2.103" d="M 71.21549987792969 125.42344665527344 C 101.13038635253906 175.37742614746094 69.15110778808594 137.4600830078125 61.803855895996094 155.01358032226562"/><path fill="none" stroke="#093982" stroke-linecap="round" stroke-linejoin="round" stroke-opacity=".149" stroke-width="3.755" d="M 98.82135009765625 98.89163970947266 C 151.85316467285156 171.73590087890625 142.02999877929688 182.89559936523438 109.19501495361328 81.05980682373047"/><path fill="none" stroke="#333D2A" stroke-linecap="round" stroke-linejoin="round" stroke-opacity=".518" stroke-width="4.281" d="M 242.6191864013672 163.9026641845703 C 284.5150451660156 207.1414031982422 238.5758819580078 213.3355712890625 140.68397521972656 193.42347717285156"/><path fill="none" stroke="#501B00" stroke-linecap="round" stroke-linejoin="round" stroke-opacity=".391" stroke-width="15.736" d="M 271.2487487792969 182.7604217529297 C 125.70857238769531 176.5076446533203 121.71466064453125 175.9161376953125 58.43434524536133 174.20204162597656"/><path fill="none" stroke="#002517" stroke-linecap="round" stroke-linejoin="round" stroke-opacity=".194" stroke-width="15.663" d="M 132.08314514160156 164.72201538085938 C 144.74139404296875 215.59994506835938 219.18002319335938 186.1365509033203 0.8953655958175659 185.36618041992188"/><path fill="none" stroke="#0B1102" stroke-linecap="round" stroke-linejoin="round" stroke-opacity=".146" stroke-width="18.902" d="M -6.894176959991455 161.45877075195312 C 229.46775817871094 163.35995483398438 -33.725372314453125 180.247314453125 95.05846405029297 208.12339782714844"/><path fill="none" stroke="#3E3422" stroke-linecap="round" stroke-linejoin="round" stroke-opacity=".101" stroke-width="8.021" d="M 124.75437927246094 61.5799446105957 C 134.4640350341797 102.10638427734375 138.55892944335938 101.68865966796875 121.1832275390625 71.91693115234375"/><path fill="none" stroke="#20040E" stroke-linecap="round" stroke-linejoin="round" stroke-opacity=".725" stroke-width="3.535" d="M 247.82833862304688 183.30450439453125 C 113.71920013427734 175.52273559570312 150.64089965820312 189.74603271484375 148.2478790283203 127.38238525390625"/><path fill="none" stroke="#2D3C37" stroke-linecap="round" stroke-linejoin="round" stroke-opacity="-.001" stroke-width="5.425" d="M -15.472328186035156 156.34449768066406 C 98.33920288085938 148.1696319580078 68.61489868164062 165.5386199951172 19.720590591430664 151.19479370117188"/><path fill="none" stroke="#D3F094" stroke-linecap="round" stroke-linejoin="round" stroke-opacity=".204" stroke-width="25.877" d="M 111.04566192626953 115.78397369384766 C 49.01840591430664 101.94718933105469 57.787784576416016 118.79875946044922 67.7200698852539 98.88678741455078"/><path fill="none" stroke="#0D1832" stroke-linecap="round" stroke-linejoin="round" stroke-opacity=".139" stroke-width="8.593" d="M 135.3264923095703 163.6947479248047 C 124.39652252197266 170.49281311035156 150.88426208496094 168.70864868164062 189.5469512939453 131.06231689453125"/><path fill="none" stroke="#450118" stroke-linecap="round" stroke-linejoin="round" stroke-opacity=".137" stroke-width="4.946" d="M 59.31589889526367 162.95651245117188 C 52.369571685791016 145.85565185546875 47.73566436767578 114.42782592773438 53.81895446777344 157.9696502685547"/><path fill="none" stroke="#DCF8FF" stroke-linecap="round" stroke-linejoin="round" stroke-opacity=".124" stroke-width="4.546" d="M 186.26412963867188 194.92715454101562 C 158.86978149414062 235.75169372558594 217.727294921875 107.75312042236328 169.5118865966797 66.38656616210938"/><path fill="none" stroke="#285257" stroke-linecap="round" stroke-linejoin="round" stroke-opacity=".389" stroke-width="16.826" d="M 97.18333435058594 178.03292846679688 C 105.27507781982422 223.97427368164062 116.98917388916016 251.7808380126953 83.11090850830078 195.56243896484375"/><path fill="none" stroke="#E4D6A6" stroke-linecap="round" stroke-linejoin="round" stroke-opacity=".006" stroke-width="2.689" d="M 121.79727172851562 128.85687255859375 C 103.57329559326172 94.3335189819336 105.66405487060547 103.60347747802734 121.52698516845703 157.86199951171875"/><path fill="none" stroke="#052E46" stroke-linecap="round" stroke-linejoin="round" stroke-opacity=".203" stroke-width="20.471" d="M -5.9568257331848145 199.11526489257812 C 141.57579040527344 183.0034637451172 58.11507797241211 206.78500366210938 100.7733383178711 224.92782592773438"/><path fill="none" stroke="#FCF893" stroke-linecap="round" stroke-linejoin="round" stroke-opacity=".118" stroke-width="33.993" d="M 155.91943359375 87.8920669555664 C 163.765625 82.29902648925781 167.3064727783203 91.84477233886719 190.23629760742188 145.5199737548828"/><path fill="none" stroke="#340E00" stroke-linecap="round" stroke-linejoin="round" stroke-opacity=".511" stroke-width="4.446" d="M 113.81266021728516 146.7886199951172 C 123.77055358886719 173.11305236816406 98.00281524658203 152.43453979492188 88.2619857788086 164.84695434570312"/><path fill="none" stroke="#3A021A" stroke-linecap="round" stroke-linejoin="round" stroke-opacity=".041" stroke-width="2.5" d="M 207.0581817626953 168.17745971679688 C 147.0252685546875 201.00238037109375 183.12071228027344 146.04103088378906 180.50628662109375 153.5810546875"/><path fill="none" stroke="#653BBB" stroke-linecap="round" stroke-linejoin="round" stroke-opacity=".818" stroke-width="3.377" d="M 64.99605560302734 140.686279296875 C 55.15324401855469 133.28646850585938 20.060731887817383 154.33428955078125 58.7462043762207 133.4442596435547"/><path fill="none" stroke="#DBB367" stroke-linecap="round" stroke-linejoin="round" stroke-opacity=".035" stroke-width="7.433" d="M 131.0016632080078 98.51625061035156 C 143.0585479736328 103.44117736816406 138.1323699951172 210.5274658203125 106.34693145751953 184.6382293701172"/><path fill="none" stroke="#2A2056" stroke-linecap="round" stroke-linejoin="round" stroke-opacity="-.001" stroke-width="2.231" d="M 138.62945556640625 161.19908142089844 C 116.10540008544922 105.71072387695312 107.05120086669922 98.4920883178711 126.23323822021484 177.51026916503906"/><path fill="none" stroke="#3E2C00" stroke-linecap="round" stroke-linejoin="round" stroke-opacity=".994" stroke-width="5.284" d="M 120.92047119140625 52.38297653198242 C 140.9132080078125 91.02078247070312 126.64860534667969 82.2948226928711 124.66302490234375 62.6384391784668"/><path fill="none" stroke="#E29C53" stroke-linecap="round" stroke-linejoin="round" stroke-opacity=".643" stroke-width="14.415" d="M 119.78446960449219 160.69964599609375 C 96.85177612304688 167.04345703125 37.06956100463867 122.25297546386719 163.41416931152344 170.46189880371094"/><path fill="none" stroke="#040800" stroke-linecap="round" stroke-linejoin="round" stroke-opacity=".132" stroke-width="6.299" d="M 143.72201538085938 103.68887329101562 C 128.23141479492188 65.52195739746094 118.58951568603516 46.47211456298828 123.57868957519531 65.24142456054688"/><path fill="none" stroke="#1E1E07" stroke-linecap="round" stroke-linejoin="round" stroke-opacity=".177" stroke-width="2.153" d="M 83.39994812011719 156.30174255371094 C 54.50741195678711 130.6907501220703 75.34152221679688 158.97830200195312 81.25342559814453 114.08863830566406"/><path fill="none" stroke="#260A00" stroke-linecap="round" stroke-linejoin="round" stroke-opacity=".999" stroke-width="4.741" d="M 53.39859390258789 104.50054931640625 C 82.22896575927734 144.70982360839844 59.78618621826172 122.85157775878906 73.06275939941406 124.54924774169922"/><path fill="none" stroke="#0040A3" stroke-linecap="round" stroke-linejoin="round" stroke-opacity=".349" stroke-width="5.922" d="M 131.3729248046875 82.00469207763672 C 115.06378173828125 58.872398376464844 110.64433288574219 75.10450744628906 130.12278747558594 74.30126953125"/><path fill="none" stroke="#FFAD41" stroke-linecap="round" stroke-linejoin="round" stroke-opacity=".791" stroke-width="16.366" d="M 240.74349975585938 124.46952056884766 C 239.19882202148438 124.91068267822266 167.78768920898438 121.9285659790039 233.46038818359375 105.47447204589844"/><path fill="none" stroke="#1E1E1A" stroke-linecap="round" stroke-linejoin="round" stroke-opacity=".538" stroke-width="3.631" d="M 229.8463897705078 213.68589782714844 C 163.965576171875 207.86465454101562 262.2867431640625 215.730712890625 101.92420196533203 212.5102996826172"/><path fill="none" stroke="#2C4C5C" stroke-linecap="round" stroke-linejoin="round" stroke-opacity=".498" stroke-width="52.976" d="M 276.7724304199219 200.8152313232422 C 233.47259521484375 196.70167541503906 181.32354736328125 185.6355743408203 118.50570678710938 204.2106475830078"/><path fill="none" stroke="#0F0004" stroke-linecap="round" stroke-linejoin="round" stroke-opacity=".527" stroke-width="4.258" d="M 123.25220489501953 60.45477294921875 C 149.60276794433594 98.1233139038086 119.71228790283203 72.56511688232422 118.4000473022461 73.64327239990234"/><path fill="none" stroke="#5A4A00" stroke-linecap="round" stroke-linejoin="round" stroke-opacity="1.002" stroke-width="2.777" d="M 64.6865463256836 84.48735809326172 C 84.1658935546875 149.14906311035156 55.2980842590332 122.52494049072266 74.73883056640625 111.16957092285156"/><path fill="none" stroke="#270209" stroke-linecap="round" stroke-linejoin="round" stroke-opacity=".071" stroke-width="9.717" d="M 30.039691925048828 197.23870849609375 C 35.73666763305664 106.25638580322266 89.80625915527344 178.66529846191406 38.21133041381836 152.9542236328125"/><path fill="none" stroke="#0057ED" stroke-linecap="round" stroke-linejoin="round" stroke-opacity=".434" stroke-width="99.873" d="M 73.5991439819336 50.1058349609375 C -132.56179809570312 267.4276123046875 85.35362243652344 -180.79092407226562 235.27716064453125 87.81707763671875"/><path fill="none" stroke="#000015" stroke-linecap="round" stroke-linejoin="round" stroke-opacity=".644" stroke-width="4.426" d="M 150.67971801757812 156.8052978515625 C 208.523681640625 146.73919677734375 333.16485595703125 149.48365783691406 168.86526489257812 151.5228729248047"/><path fill="none" stroke="#112B43" stroke-linecap="round" stroke-linejoin="round" stroke-opacity=".222" stroke-width="3.083" d="M 0.7050358653068542 198.6247100830078 C 181.54273986816406 185.872802734375 114.58088684082031 203.3138427734375 50.360931396484375 222.66268920898438"/><path fill="none" stroke="#181837" stroke-linecap="round" stroke-linejoin="round" stroke-opacity=".208" stroke-width="2.562" d="M 102.79627227783203 179.6143798828125 C 94.34630584716797 118.37457275390625 113.18312072753906 143.60818481445312 108.57894134521484 93.96331024169922"/><path fill="none" stroke="#000003" stroke-linecap="round" stroke-linejoin="round" stroke-opacity="1.003" stroke-width="8.189" d="M 70.00469207763672 99.90558624267578 C 95.3397445678711 132.00205993652344 101.6773681640625 141.97317504882812 35.92127227783203 145.58665466308594"/><path fill="none" stroke="#000D0A" stroke-linecap="round" stroke-linejoin="round" stroke-opacity=".19" stroke-width="4.463" d="M 26.510774612426758 206.56515502929688 C 245.14903259277344 203.32647705078125 113.25867462158203 196.80731201171875 242.49732971191406 192.5370635986328"/><path fill="none" stroke="#798184" stroke-linecap="round" stroke-linejoin="round" stroke-opacity=".092" stroke-width="8.814" d="M 158.40721130371094 161.84364318847656 C 159.28494262695312 241.7427978515625 145.66241455078125 222.1278839111328 90.99618530273438 163.34884643554688"/><path fill="none" stroke="#02070E" stroke-linecap="round" stroke-linejoin="round" stroke-opacity=".665" stroke-width="6.85" d="M 42.03959274291992 174.5333709716797 C 128.45767211914062 187.54774475097656 -27.80930519104004 165.62954711914062 -28.902273178100586 185.28285217285156"/><path fill="none" stroke="#000A2D" stroke-linecap="round" stroke-linejoin="round" stroke-opacity=".888" stroke-width="9.954" d="M 70.64810943603516 108.54621124267578 C 86.17782592773438 165.68392944335938 66.58786010742188 100.80760192871094 84.75520324707031 132.5169677734375"/><path fill="none" stroke="#301300" stroke-linecap="round" stroke-linejoin="round" stroke-opacity=".396" stroke-width="5.345" d="M 86.76287841796875 134.17776489257812 C 11.924077987670898 150.5200653076172 98.27151489257812 134.10372924804688 66.60017395019531 90.64881134033203"/><path fill="none" stroke="#001352" stroke-linecap="round" stroke-linejoin="round" stroke-opacity=".624" stroke-width="10.409" d="M 71.48485565185547 111.17212677001953 C 68.16670227050781 122.8436508178711 92.30473327636719 120.08304595947266 63.669471740722656 131.25103759765625"/><path fill="none" stroke="#241303" stroke-linecap="round" stroke-linejoin="round" stroke-opacity=".139" stroke-width="9.078" d="M 134.39894104003906 182.0880126953125 C 125.4441909790039 159.42787170410156 131.7313232421875 159.0769500732422 251.19976806640625 152.43226623535156"/><path fill="none" stroke="#00030D" stroke-linecap="round" stroke-linejoin="round" stroke-opacity=".132" stroke-width="1.846" d="M 108.27420043945312 230.6371307373047 C 2.4238297939300537 200.0666961669922 -35.36037826538086 203.3720245361328 69.59223937988281 221.07415771484375"/><path fill="none" stroke="#ECE4D7" stroke-linecap="round" stroke-linejoin="round" stroke-opacity=".967" stroke-width="21.32" d="M 206.5318603515625 119.0835952758789 C 247.0061798095703 171.48226928710938 231.9302520751953 119.77574157714844 210.21238708496094 116.38545989990234"/><path fill="none" stroke="#52ADFF" stroke-linecap="round" stroke-linejoin="round" stroke-opacity=".048" stroke-width="17.477" d="M 48.95375061035156 215.5721435546875 C 50.968875885009766 106.29972076416016 -0.9599334001541138 140.3958282470703 -11.541662216186523 144.9143829345703"/><path fill="none" stroke="#110409" stroke-linecap="round" stroke-linejoin="round" stroke-opacity=".405" stroke-width="8.718" d="M 37.926570892333984 155.81085205078125 C 91.19657897949219 184.19052124023438 65.90093231201172 170.73092651367188 3.0686275959014893 178.9320526123047"/><path fill="none" stroke="#FFB36E" stroke-linecap="round" stroke-linejoin="round" stroke-opacity=".63" stroke-width="7.528" d="M -17.67970848083496 172.9932861328125 C 118.00463104248047 174.54818725585938 108.47343444824219 174.787109375 230.35401916503906 176.2635040283203"/></g></svg>